<svg id="レイヤー_1" data-name="レイヤー 1" xmlns="http://www.w3.org/2000/svg" viewBox="0 0 1920 835.1"><defs><style>.cls-1{fill:#f4e767;}.cls-1,.cls-2,.cls-3{isolation:isolate;opacity:0.39;}.cls-2{fill:#79d2db;}.cls-3{fill:#2fa89a;}.cls-4{fill:#fcfcfc;}</style></defs><g id="レイヤー_1-2" data-name="レイヤー 1"><polygon class="cls-1" points="1920 835.1 0 670.5 0 630.9 1920 650.8 1920 835.1"/><polygon class="cls-2" points="1920 349.9 0 630.9 0 392.8 1920 269.1 1920 349.9"/><polygon class="cls-3" points="1920 269.1 0 81.9 0 0 1920 78.4 1920 269.1"/></g><g id="レイヤー_3" data-name="レイヤー 3"><path class="cls-4" d="M19,777.6c0-1.8.1-3.1.1-4.5s.1-2.7.1-4.5c2.9-.6,5.6-1.1,8.1-1.6s4.7-1,6.8-1.5,3.9-1,5.6-1.4,3.2-1,4.6-1.5a25.57,25.57,0,0,0,3.7-1.7,11.76,11.76,0,0,0,2.8-2,15.07,15.07,0,0,0,2.1-2.3,12.47,12.47,0,0,0,1.5-2.8,25.78,25.78,0,0,0,1-3.3,22.77,22.77,0,0,0,.6-3.9c.1-1.4.3-3,.3-4.6s.1-3.5.2-5.5.1-3.8.1-5.7.1-3.7.1-5.5.1-3.6.1-5.3.1-3.4.1-5.1.1-3.3.1-5,.1-3.2.1-4.8.1-3.1.1-4.7.1-3.1.1-4.6.1-3,.1-4.5.1-3,.1-4.4.1-2.9.1-4.4.1-2.9.1-4.4.1-2.9.1-4.4.1-2.9.1-4.4.1-2.9.1-4.4.1-2.9.1-4.4.1-3,.1-4.5.1-3,.1-4.6.1-3.1.1-4.7.1-3.2.1-4.8.1-3.3.1-5,.1-3.4.1-5.1.1-3.5.1-5.3.1-3.6.1-5.5.1-3.8.1-5.7c.1-2.7,0-4.9-.1-6.8a23.6,23.6,0,0,0-.7-4.6,6.4,6.4,0,0,0-1.7-2.9,8.54,8.54,0,0,0-2.8-1.6,20.93,20.93,0,0,0-4.2-.8c-1.7-.2-3.6-.2-5.9-.3-1.5-.1-2.8-.1-4.1-.2s-2.4-.1-3.5-.2-2.3-.1-3.5-.2-2.5-.1-4-.2c0-1.6.1-2.8.1-4s.1-2.4.1-4l5.1-1.2,5.1-1.2c1.7-.4,3.4-.9,5.1-1.3s3.3-.9,5-1.4,3.3-.9,4.9-1.4,3.3-1,4.9-1.5l4.8-1.5c1.6-.5,3.1-1.1,4.7-1.6s3-1.1,4.5-1.7,2.9-1.1,4.4-1.7l4.2-1.8c1.4-.6,2.7-1.2,4-1.9,0,2-.1,3.9-.1,5.8s-.1,3.8-.1,5.6-.1,3.7-.1,5.5-.1,3.6-.1,5.3-.1,3.5-.1,5.2-.1,3.4-.1,5.1-.1,3.3-.1,5-.1,3.3-.1,4.9-.1,3.2-.1,4.8-.1,3.1-.1,4.7-.1,3.1-.1,4.6-.1,3-.1,4.6-.1,3-.1,4.5-.1,3-.1,4.5-.1,3-.1,4.4-.1,3-.1,4.4-.1,2.9-.1,4.4-.1,2.9-.1,4.4-.1,3-.1,4.4-.1,3-.1,4.5-.1,3-.1,4.5-.1,3-.1,4.6-.1,3.1-.1,4.6-.1,3.1-.1,4.7-.1,3.2-.1,4.8-.1,3.2-.1,4.9-.1,3.3-.1,5-.1,3.4-.1,5.1-.1,3.4-.1,5.2-.1,3.5-.1,5.3-.1,3.6-.1,5.5-.1,3.7-.1,5.6-.1,3.8-.1,5.8c0,2.2-.1,4.1,0,5.9s.1,3.4.2,4.9a20,20,0,0,0,.6,3.9,18.51,18.51,0,0,0,1.1,3.1,10.18,10.18,0,0,0,1.8,2.3,7.6,7.6,0,0,0,2.6,1.6,15.51,15.51,0,0,0,3.6,1c1.4.2,2.9.4,4.7.5s3.7.1,5.9.1,4.6-.1,7.3-.3,5.6-.3,8.8-.5c0,1.7,0,3-.1,4.3s0,2.6-.1,4.3c-1.9.2-3.8.5-5.6.7s-3.6.5-5.3.7-3.4.5-5.1.7l-4.9.6-4.7.6-4.6.6-4.5.6-4.4.6-4.3.6-4.3.6-4.3.6-4.3.6-4.3.6-4.4.6-4.5.6-4.6.6-4.7.6-4.9.6c-1.7.2-3.4.4-5.1.7s-3.5.5-5.3.7C22.8,777.1,20.9,777.4,19,777.6Z" transform="translate(0 -166)"/><path class="cls-4" d="M161.5,604.2c1.2-1.6,2.2-3,3.2-4.4s1.9-2.6,2.8-3.8l2.7-3.6c.9-1.2,1.8-2.4,2.8-3.8s2-2.7,3.2-4.3c.9-1,1.9-2,2.9-3s2.1-1.9,3.2-2.8,2.2-1.8,3.4-2.6,2.4-1.6,3.7-2.4,2.6-1.5,3.9-2.2,2.7-1.3,4.2-1.9,2.9-1.1,4.4-1.6a34.47,34.47,0,0,1,4.6-1.2l4.7-.9a38.7,38.7,0,0,1,4.9-.5,58,58,0,0,1,5.9,0,48.86,48.86,0,0,1,5.5.5,43.39,43.39,0,0,1,5.2.9c1.7.4,3.3.9,4.9,1.4a30.16,30.16,0,0,1,4.5,1.8c1.4.7,2.8,1.4,4.1,2.2s2.5,1.7,3.7,2.6,2.2,1.9,3.3,2.9a27.89,27.89,0,0,1,2.8,3.2,31.72,31.72,0,0,1,2.3,3.6c.7,1.2,1.3,2.5,1.9,3.8s1,2.7,1.4,4.1a32.47,32.47,0,0,1,.8,4.3,33.33,33.33,0,0,1,.3,4.6,27.34,27.34,0,0,1-.5,5,25.16,25.16,0,0,1-1.3,4.7c-.6,1.5-1.3,3-2,4.4a36.22,36.22,0,0,1-2.7,4.1c-1,1.3-2,2.6-3.1,3.8a34.37,34.37,0,0,1-2.7,2.7c-1,.9-2.1,1.8-3.2,2.8s-2.3,1.9-3.6,2.9l-3.9,3-4.2,3c-1.4,1-2.9,2.1-4.4,3.1,2.1.2,4.1.6,6,.9s3.8.8,5.6,1.3,3.6,1,5.2,1.6,3.3,1.3,4.8,2,3,1.5,4.4,2.3a39.37,39.37,0,0,1,4,2.6,35.06,35.06,0,0,1,3.6,2.9c1.1,1,2.2,2,3.2,3.1a28.76,28.76,0,0,1,2.7,3.4,34.79,34.79,0,0,1,2.2,3.6,26.4,26.4,0,0,1,1.8,3.8c.5,1.3.9,2.6,1.3,4s.6,2.8.8,4.2a31.45,31.45,0,0,1,.3,4.4,49.33,49.33,0,0,1-.3,5.5c-.2,1.8-.5,3.6-.8,5.3s-.8,3.4-1.3,5.1a40.92,40.92,0,0,1-1.8,4.9c-.7,1.6-1.4,3.2-2.2,4.7s-1.7,3-2.6,4.5-1.9,2.9-2.9,4.3a42.3,42.3,0,0,1-3.3,4.1c-1.1,1.3-2.3,2.7-3.5,4s-2.5,2.5-3.8,3.8-2.6,2.4-4,3.6-2.7,2.3-4.2,3.4-2.8,2.1-4.3,3.2-2.9,2-4.4,3-2.9,1.9-4.4,2.8-3,1.7-4.4,2.5-2.9,1.6-4.4,2.3-2.9,1.4-4.3,2.1-2.9,1.3-4.2,1.9-2.8,1.1-4.1,1.7-2.7,1-3.9,1.4-2.5.8-3.7,1.2-2.4.7-3.5,1-2.2.5-3.2.7-2,.4-2.8.5c-2.1.3-4.2.4-6.2.5a57.58,57.58,0,0,1-5.9-.1,48.59,48.59,0,0,1-5.5-.7c-1.7-.3-3.4-.7-4.9-1.1a41.32,41.32,0,0,1-4.2-1.4,36.76,36.76,0,0,1-3.4-1.6,12.43,12.43,0,0,1-2.4-1.7,20.45,20.45,0,0,1-2.9-3.2,10.13,10.13,0,0,1-1.4-3,8.2,8.2,0,0,1-.3-3.1A13.91,13.91,0,0,1,159,738a26.54,26.54,0,0,1,2.8-4.3,19,19,0,0,1,3.1-3.2,7.43,7.43,0,0,1,4-1.9,5.71,5.71,0,0,1,4.2,1.2c.9.7,1.9,1.4,2.9,2.1s2.1,1.4,3.3,2.1,2.3,1.3,3.6,2,2.6,1.2,3.9,1.8,2.8,1,4.3,1.5,3,.8,4.6,1.1,3.3.5,5,.7,3.5.2,5.4.2,3.8-.2,5.8-.4c1.6-.2,3.2-.5,4.7-.8s3-.8,4.5-1.3,2.9-1.1,4.3-1.7a41.44,41.44,0,0,0,7.7-4.8,31.75,31.75,0,0,0,3.4-3c1.1-1.1,2.1-2.2,3.1-3.4a31.76,31.76,0,0,0,2.7-3.7c.8-1.3,1.7-2.7,2.4-4.1a46.84,46.84,0,0,0,2-4.5c.6-1.6,1.1-3.2,1.6-4.8s.8-3.4,1.2-5.2a33.09,33.09,0,0,0,.7-5.5,37.07,37.07,0,0,0,.2-5.8,52.83,52.83,0,0,0-.4-5.8,39.75,39.75,0,0,0-1.1-5.2,36.11,36.11,0,0,0-1.7-4.6,26,26,0,0,0-2.3-4,31,31,0,0,0-2.7-3.4,28.91,28.91,0,0,0-3.2-2.9,22.55,22.55,0,0,0-3.6-2.4,23.51,23.51,0,0,0-3.9-1.9c-1.4-.5-2.7-1-4.1-1.5s-2.9-.7-4.3-1a34.69,34.69,0,0,0-4.5-.6c-1.5-.1-3-.2-4.6-.2s-3.1.1-4.6.2a35.62,35.62,0,0,0-4.4.6c-1.5.3-3,.6-4.6.9a28.26,28.26,0,0,0-4.4,1.2c-1.4.4-2.8.8-4,1.2s-2.4.8-3.4,1.2c-.4-1.7-.7-3.1-1.1-4.4s-.6-2.6-1.1-4.4c1.8-.7,3.7-1.5,5.5-2.2s3.6-1.5,5.3-2.3l5.1-2.4c1.7-.8,3.3-1.7,4.9-2.5s3.1-1.7,4.6-2.6,2.9-1.8,4.3-2.7,2.7-1.9,4-2.8,2.5-2,3.6-3,2.2-2.1,3.2-3.1a41,41,0,0,0,2.8-3.3,35.35,35.35,0,0,0,2.4-3.4,31.25,31.25,0,0,0,1.9-3.6,24.64,24.64,0,0,0,1.4-3.8,25.85,25.85,0,0,0,.9-4,29.66,29.66,0,0,0,.3-4.2,31.17,31.17,0,0,0-.4-5.4,33.67,33.67,0,0,0-1.2-4.8,20.28,20.28,0,0,0-2-4.2,19.12,19.12,0,0,0-2.7-3.5,32.37,32.37,0,0,0-3.4-2.9,26.7,26.7,0,0,0-4.1-2.2,32.31,32.31,0,0,0-4.7-1.5,43.38,43.38,0,0,0-5.2-.8,36.13,36.13,0,0,0-5.7,0,44.29,44.29,0,0,0-5.1.6,33.63,33.63,0,0,0-4.8,1.3,36.56,36.56,0,0,0-4.6,1.8c-1.5.7-2.9,1.5-4.3,2.3s-2.7,1.8-4,2.7-2.6,2-3.8,3.1-2.4,2.2-3.5,3.3-2.2,2.3-3.2,3.5-2,2.4-2.9,3.6-1.8,2.4-2.6,3.6c-1.3-1.1-2.3-2-3.2-2.8A33.66,33.66,0,0,1,161.5,604.2Z" transform="translate(0 -166)"/><path class="cls-4" d="M436.1,561c-.7,1.4-1.5,2.8-2.2,4.2s-1.5,2.8-2.2,4.3-1.5,2.8-2.2,4.3-1.5,2.8-2.2,4.3-1.5,2.9-2.2,4.3-1.5,2.9-2.2,4.3-1.5,2.9-2.2,4.3-1.5,2.9-2.2,4.3-1.5,2.9-2.2,4.3-1.5,2.9-2.2,4.3-1.5,2.9-2.2,4.3-1.5,2.9-2.2,4.3-1.5,2.9-2.2,4.4-1.5,2.9-2.2,4.4-1.5,2.9-2.2,4.4-1.5,2.9-2.2,4.4-1.5,2.9-2.2,4.4-1.5,2.9-2.2,4.4-1.5,2.9-2.2,4.4-1.5,3-2.2,4.4-1.5,3-2.2,4.4-1.5,3-2.2,4.5-1.5,3-2.2,4.5-1.5,3-2.2,4.5-1.5,3-2.2,4.5-1.5,3-2.2,4.5-1.5,3-2.2,4.5-1.5,3-2.2,4.5-1.5,3-2.2,4.5-1.5,3-2.2,4.6-1.5,3-2.3,4.6-1.5,3.1-2.3,4.6-1.5,3.1-2.3,4.6-1.5,3.1-2.3,4.6-1.5,3.1-2.3,4.6-1.5,3.1-2.3,4.6-1.5,3.1-2.3,4.7-1.5,3.1-2.3,4.7-1.5,3.1-2.3,4.7c-1.8.4-3.4.8-4.9,1.1s-2.9.6-4.3,1-2.7.6-4.1.9-2.8.6-4.3,1-3.1.7-4.9,1.1c-.9-1.1-1.3-1.7-2.2-2.8.9-1.4,1.7-2.8,2.6-4.2s1.8-2.8,2.6-4.2,1.8-2.8,2.6-4.3,1.8-2.9,2.6-4.3,1.8-2.9,2.6-4.3,1.8-2.9,2.6-4.3,1.8-2.9,2.6-4.4,1.8-2.9,2.6-4.4,1.7-2.9,2.6-4.4,1.7-2.9,2.6-4.4,1.7-2.9,2.6-4.4,1.7-3,2.6-4.4,1.7-3,2.6-4.4,1.7-3,2.6-4.4,1.7-3,2.6-4.4,1.7-3,2.5-4.4l2.5-4.4c.8-1.5,1.7-2.9,2.5-4.4s1.7-2.9,2.5-4.4,1.7-2.9,2.5-4.4,1.6-2.9,2.5-4.4,1.6-2.9,2.4-4.4,1.6-2.9,2.4-4.4,1.6-2.9,2.4-4.3,1.6-2.9,2.4-4.3,1.6-2.9,2.3-4.3,1.5-2.8,2.3-4.2,1.5-2.8,2.3-4.2,1.5-2.8,2.2-4.2,1.5-2.8,2.2-4.2,1.5-2.7,2.2-4.1,1.4-2.7,2.1-4.1,1.4-2.7,2.1-4,1.4-2.7,2.1-4,1.4-2.6,2-3.9,1.3-2.6,2-3.9,1.3-2.6,1.9-3.8l-5.5.3-5.1.3-4.8.3-4.6.3-4.4.3-4.3.3-4.3.3-4.3.3-4.3.3-4.4.3-4.6.3-4.8.3-5.1.3-5.5.3c-2.2.1-4.2.3-6,.5s-3.4.4-4.8.7a22.21,22.21,0,0,0-3.9,1.1,17.91,17.91,0,0,0-3.1,1.5,17.09,17.09,0,0,0-2.6,2.1,20.93,20.93,0,0,0-2.2,2.8,40.68,40.68,0,0,0-2.1,3.7c-.7,1.4-1.4,2.9-2.2,4.7s-1.6,3.6-2.5,5.8c-1.9.1-3.4.2-4.8.3s-2.9.2-4.8.3c.3-1.8.6-3.5.9-5.2s.6-3.4.8-5.1.5-3.3.7-5l.6-4.8c.2-1.6.4-3.1.6-4.7s.4-3.1.5-4.5.3-3,.5-4.4.3-2.9.5-4.3.3-2.8.5-4.1l5.9-.3,5.6-.3,5.4-.3,5.2-.3,5.1-.3,4.9-.3,4.8-.3c1.6-.1,3.1-.2,4.7-.2s3.1-.2,4.6-.2,3-.2,4.6-.2,3-.2,4.5-.2,3-.2,4.5-.2,3-.2,4.5-.2,3-.2,4.5-.2,3-.2,4.6-.2,3.1-.2,4.6-.2l4.7-.3,4.8-.3,4.9-.3,5.1-.3,5.2-.3,5.4-.3,5.6-.3,5.9-.3A11.2,11.2,0,0,1,436.1,561Z" transform="translate(0 -166)"/><path class="cls-4" d="M518.3,710.3c-1.8,1-3.5,1.9-5.1,2.6a37.77,37.77,0,0,1-4.6,1.7c-1.4.4-2.6.7-3.7.9-2,.3-3.9.4-5.7.5a29.78,29.78,0,0,1-5.2-.2,28.84,28.84,0,0,1-4.6-.9,17.6,17.6,0,0,1-4-1.6,19.18,19.18,0,0,1-3.5-2.3,20.57,20.57,0,0,1-2.9-3,19.32,19.32,0,0,1-2.3-3.7,28.71,28.71,0,0,1-1.7-4.4,38.2,38.2,0,0,1-1.1-5.1,52.83,52.83,0,0,1-.4-5.8c0-1.9-.1-3.7-.1-5.5s-.1-3.5-.1-5.2-.1-3.3-.1-4.9-.1-3.2-.1-4.7-.1-3-.1-4.5-.1-2.9-.1-4.4-.1-2.9-.1-4.3-.1-2.8-.1-4.2-.1-2.8-.1-4.2-.1-2.8-.1-4.3-.1-2.9-.1-4.4-.1-3-.1-4.5-.1-3.1-.1-4.7-.1-3.2-.1-4.9-.1-3.4-.1-5.2-.1-3.6-.1-5.5c-1.7.1-3.3.3-4.7.4l-4.1.3-3.9.3-4.1.3c-1.4.1-3,.3-4.7.4-.5-1.2-.8-1.8-1.3-3l2.9-2.9c.9-.9,1.6-1.7,2.5-2.5s1.8-1.8,2.9-2.9c1.9-.2,3.5-.3,5-.4l4.3-.3c1.5-.1,3.1-.2,5-.4,0-1.7-.1-3.3-.1-4.8s-.1-2.8-.1-4.1-.1-2.6-.1-3.9-.1-2.7-.1-4.1-.1-3-.1-4.8c1-.9,2-1.9,3.1-2.9s2.3-2,3.4-3.1,2.4-2.1,3.6-3.2,2.4-2.1,3.6-3.2,2.3-2.1,3.4-3.1,2.1-2,3.1-2.9c1.9.1,2.8.1,4.6.2,0,1.3-.1,2.8-.1,4.2s-.1,3-.1,4.5,0,3.1-.1,4.7v14.9c0,1.6,0,3.3.1,4.9s.1,3.2.1,4.7c1.8-.1,3.4-.3,5-.4s3.1-.2,4.5-.4l4.2-.3,4-.3,4-.3,4.2-.3c1.4-.1,2.9-.2,4.5-.4s3.2-.3,5-.4a4.83,4.83,0,0,1,1.7,3.1,6.71,6.71,0,0,1-.6,3.9,7.91,7.91,0,0,1-2.7,3.3c-1.9.2-3.7.3-5.4.5s-3.3.3-4.8.4-3,.3-4.4.4-2.9.2-4.3.4-2.9.3-4.4.4-3.1.3-4.8.4-3.5.3-5.4.5c0,1.9.1,3.7.1,5.4s.1,3.4.1,5.1.1,3.2.1,4.8.1,3.1.1,4.6.1,2.9.1,4.4.1,2.9.1,4.3.1,2.8.1,4.2.1,2.8.1,4.2.1,2.8.1,4.3.1,2.9.1,4.4.1,3,.1,4.6.1,3.1.1,4.8.1,3.3.1,5.1.1,3.5.1,5.4a43.58,43.58,0,0,0,.8,7.8,25.08,25.08,0,0,0,1.7,5.8,17.87,17.87,0,0,0,2.5,4.1,10.75,10.75,0,0,0,3.1,2.6,12.24,12.24,0,0,0,3.4,1.4,14.22,14.22,0,0,0,3.6.5,21.74,21.74,0,0,0,3.6-.2c1.5-.2,3-.5,4.4-.8s2.9-.8,4.2-1.2a35.25,35.25,0,0,0,3.9-1.5c1.2-.6,2.4-1,3.5-1.5s2-1,2.9-1.5c.6,1.2,1,2.1,1.5,3.1s.9,1.8,1.5,3.1c-1.6.9-3.1,1.8-4.5,2.5s-2.6,1.5-3.9,2.2-2.4,1.4-3.7,2.1-2.5,1.4-3.9,2.2A16.4,16.4,0,0,1,518.3,710.3Z" transform="translate(0 -166)"/><path class="cls-4" d="M638,693.8c0-1.3-.1-2.3-.1-3.3s-.1-2-.1-3.3c2.6-.6,4.8-1.1,6.8-1.6a34.48,34.48,0,0,0,5.1-1.6,25.67,25.67,0,0,0,3.7-1.8,7.85,7.85,0,0,0,2.4-2.4,10,10,0,0,0,1.4-3.3,26,26,0,0,0,.6-4.4,55.87,55.87,0,0,0,0-5.8c-.1-1.9-.1-3.7-.2-5.4s-.1-3.3-.2-4.9-.1-3.1-.2-4.5-.1-2.9-.2-4.3-.1-2.9-.2-4.3-.1-3-.2-4.5-.1-3.2-.2-4.9-.1-3.5-.2-5.4a46.8,46.8,0,0,0-.5-5.5,38.77,38.77,0,0,0-1.1-4.9,23,23,0,0,0-1.7-4.2,22.07,22.07,0,0,0-2.3-3.6,20.57,20.57,0,0,0-2.9-3,16.28,16.28,0,0,0-3.5-2.3,38.87,38.87,0,0,0-4.1-1.7,23,23,0,0,0-4.7-1,43.91,43.91,0,0,0-5.3-.4c-1.9,0-3.8.1-5.9.3a31.09,31.09,0,0,0-4.4.6c-1.5.3-3,.6-4.4,1s-2.9.9-4.4,1.4a39.29,39.29,0,0,0-4.3,1.8c-1.4.7-2.8,1.4-4.1,2.2s-2.6,1.6-3.9,2.5a34.4,34.4,0,0,0-3.6,2.8,33.41,33.41,0,0,0-3.3,3.2c.1,1.9.1,3.7.2,5.5s.1,3.5.2,5.1.1,3.2.2,4.8.1,3.1.1,4.5.1,2.9.1,4.4.1,2.9.1,4.3.1,2.9.1,4.3.1,2.9.1,4.4.1,3,.1,4.5.1,3.1.2,4.8.1,3.3.2,5.1.1,3.6.2,5.5c.1,2.2.2,4.2.4,5.9a21.5,21.5,0,0,0,.9,4.3,8.57,8.57,0,0,0,1.6,3,6.77,6.77,0,0,0,2.6,1.8,16.09,16.09,0,0,0,3.9.9,43.58,43.58,0,0,0,5.4.2c2.1,0,4.4-.1,7.1-.3,0,1.3.1,2.3.1,3.4s.1,2,.1,3.4c-1.9.3-3.8.5-5.6.8s-3.6.5-5.3.7-3.4.5-5,.7-3.2.4-4.7.7l-4.6.6-4.4.6-4.4.6-4.4.6-4.5.6-4.6.6c-1.5.2-3.1.4-4.7.7s-3.3.5-5,.7-3.5.5-5.3.7-3.7.5-5.6.8c0-1.4-.1-2.4-.1-3.5s-.1-2.1-.1-3.5c2.3-.5,4.3-.9,6.1-1.3s3.5-.9,4.9-1.3a22.87,22.87,0,0,0,3.8-1.6,12.4,12.4,0,0,0,2.9-2,8.6,8.6,0,0,0,2-2.6,16.07,16.07,0,0,0,1.2-3.3,26.22,26.22,0,0,0,.6-4.3,50.3,50.3,0,0,0,0-5.5c-.1-2-.1-3.9-.2-5.8s-.1-3.8-.2-5.6-.1-3.6-.2-5.4-.1-3.5-.2-5.2-.1-3.4-.2-5-.1-3.3-.1-4.9-.1-3.2-.1-4.8-.1-3.1-.1-4.6-.1-3.1-.1-4.6-.1-3-.1-4.5-.1-3-.1-4.5-.1-3-.1-4.4-.1-3-.1-4.4-.1-3-.1-4.5-.1-3-.1-4.5-.1-3-.1-4.6-.1-3.1-.1-4.6-.1-3.1-.1-4.8-.1-3.2-.1-4.9-.1-3.3-.2-5-.1-3.4-.2-5.2-.1-3.5-.2-5.4-.1-3.7-.2-5.6-.1-3.8-.2-5.8-.1-3.5-.3-5a14.31,14.31,0,0,0-.7-3.9,8.7,8.7,0,0,0-1.4-2.9,7.55,7.55,0,0,0-2.5-2.1,14.6,14.6,0,0,0-3.9-1.4,37.55,37.55,0,0,0-5.6-.8c-2.2-.2-4.8-.3-7.7-.4,0-1.3-.1-2.3-.1-3.2s-.1-1.9-.1-3.2c1.6-.2,3.3-.4,4.9-.7s3.3-.5,5-.8,3.4-.6,5-.9,3.3-.7,5-1,3.3-.7,4.9-1.1,3.2-.8,4.7-1.1l4.5-1.2q2.25-.6,4.2-1.2,2.1-.6,3.9-1.2c1.2-.4,2.4-.8,3.5-1.2,0,1.3.1,2.7.1,4.1s.1,2.8.1,4.2.1,2.9.1,4.3.1,2.9.1,4.4.1,2.9.1,4.4.1,2.9.1,4.4.1,2.9.1,4.3c.1,1.9.1,3.7.2,5.5s.1,3.4.2,5.1.1,3.2.2,4.7.1,3,.1,4.5.1,2.9.1,4.4.1,2.9.1,4.3.1,2.9.1,4.4.1,3,.1,4.5.1,3.1.2,4.7.1,3.3.2,5.1.1,3.6.2,5.5c1.1-1,2.2-2,3.4-2.9s2.5-1.9,3.8-2.9,2.6-1.9,4-2.8,2.8-1.8,4.3-2.7,3-1.7,4.5-2.5,3.1-1.5,4.7-2.2,3.2-1.3,4.8-1.9,3.3-1.1,4.9-1.6a40.33,40.33,0,0,1,5-1.1c1.7-.3,3.3-.5,5-.7s3.6-.2,5.3-.2,3.4,0,5.1.1a35,35,0,0,1,4.8.6c1.6.3,3.1.6,4.5,1a41.32,41.32,0,0,1,4.2,1.4,23.22,23.22,0,0,1,3.9,1.8,26.37,26.37,0,0,1,3.5,2.3,26.92,26.92,0,0,1,3.2,2.7,29.15,29.15,0,0,1,2.8,3.2,28.16,28.16,0,0,1,2.4,3.6,30.5,30.5,0,0,1,1.9,4.1,35.33,35.33,0,0,1,1.5,4.6,38.38,38.38,0,0,1,1,5.1,50.37,50.37,0,0,1,.5,5.7c.1,1.8.1,3.5.2,5.1s.1,3.2.2,4.7.1,2.9.2,4.3.1,2.8.2,4.1.1,2.7.2,4.1.1,2.7.2,4.1.1,2.8.2,4.3.1,3,.2,4.7.1,3.3.2,5.1c.1,2.2.2,4,.4,5.7a18,18,0,0,0,.9,4.1,7.62,7.62,0,0,0,1.6,2.8,6.92,6.92,0,0,0,2.6,1.7,16.76,16.76,0,0,0,3.8.8c1.5.1,3.2.1,5.2.1s4.3-.2,6.9-.4c.1,1.3.1,2.2.1,3.2s.1,1.9.1,3.2c-1.9.3-3.7.5-5.5.8s-3.5.5-5.1.7-3.3.5-4.8.7-3.1.4-4.6.7l-4.4.6-4.3.6-4.2.6-4.2.6-4.3.6-4.4.6c-1.5.2-3,.4-4.6.7s-3.2.4-4.8.7-3.4.5-5.1.7A19.53,19.53,0,0,0,638,693.8Z" transform="translate(0 -166)"/><path class="cls-4" d="M895.8,656.7c-.1-1.1-.1-2-.2-2.8s-.1-1.7-.2-2.8c2.8-.6,5.3-1.1,7.6-1.6s4.2-1,6-1.5,3.2-1.1,4.5-1.6a15.91,15.91,0,0,0,3.2-1.9,7.91,7.91,0,0,0,2.1-2.4A12.52,12.52,0,0,0,920,639a23,23,0,0,0,.5-4,45,45,0,0,0-.1-5.1c-.1-1.9-.3-4-.5-6.4-.1-1.9-.2-3.8-.4-5.5s-.2-3.5-.3-5.3-.2-3.4-.3-5l-.3-4.8c-.1-1.6-.2-3.1-.3-4.6l-.3-4.5c-.1-1.5-.2-2.9-.3-4.4s-.2-2.9-.3-4.3-.2-2.9-.3-4.3-.2-2.9-.3-4.3-.2-2.9-.3-4.4l-.3-4.5c-.1-1.5-.2-3-.3-4.6s-.2-3.1-.3-4.8-.2-3.3-.3-5-.2-3.5-.3-5.2-.2-3.6-.4-5.5c-.8,1.3-1.6,2.7-2.4,4s-1.7,2.8-2.5,4.2-1.7,2.9-2.6,4.3-1.8,2.9-2.7,4.4l-2.7,4.5c-.9,1.5-1.8,3.1-2.8,4.6s-1.9,3.1-2.8,4.7-1.9,3.2-2.9,4.8-1.9,3.2-2.9,4.8-1.9,3.2-2.9,4.9-1.9,3.3-2.9,4.9-1.9,3.3-2.9,4.9-1.9,3.3-2.9,4.9-1.9,3.2-2.8,4.8-1.9,3.2-2.8,4.8-1.8,3.2-2.7,4.7-1.8,3.1-2.7,4.6-1.7,3-2.6,4.5-1.7,3-2.5,4.4-1.6,2.9-2.4,4.3-1.6,2.8-2.3,4.1-1.5,2.7-2.2,4-1.4,2.5-2.1,3.8-1.3,2.4-1.9,3.6-1.2,2.3-1.8,3.3-1.1,2.1-1.6,3.1-1,1.9-1.5,2.8-.9,1.7-1.3,2.5-.8,1.5-1.1,2.2c-1.6.2-2.8.4-4.1.6s-2.4.4-4.1.6c-.4-.6-.9-1.3-1.4-2.1s-1-1.5-1.6-2.4-1.2-1.7-1.8-2.6-1.3-1.9-2-2.9-1.4-2-2.2-3.1-1.5-2.2-2.3-3.3-1.6-2.3-2.5-3.5-1.7-2.5-2.6-3.7l-2.7-3.9c-.9-1.3-1.9-2.7-2.8-4.1s-1.9-2.8-2.9-4.2-2-2.9-3-4.3-2.1-3-3.1-4.5-2.1-3-3.2-4.6-2.1-3.1-3.2-4.6-2.2-3.1-3.3-4.7l-3.3-4.8L789,597l-3.3-4.8-3.3-4.8-3.3-4.8c-1.1-1.6-2.2-3.2-3.2-4.7s-2.1-3.1-3.2-4.7-2.1-3.1-3.1-4.6-2.1-3-3.1-4.5-2-3-3-4.4-1.9-2.9-2.9-4.3c-.1,3.9-.1,7.6-.2,11.1s-.1,7-.2,10.3-.1,6.4-.1,9.4-.1,5.9-.1,8.7-.1,5.4-.1,7.9-.1,4.9-.1,7.2,0,4.4-.1,6.5v37.7a16.69,16.69,0,0,0,.7,4.1,9.78,9.78,0,0,0,1.4,3.1,7.68,7.68,0,0,0,2.2,2.2,12.76,12.76,0,0,0,3.1,1.5,15.69,15.69,0,0,0,4.1.8c1.6.1,3.2.3,5.1.3s3.9,0,6.2-.1,4.7-.2,7.4-.4c.1,1.2.1,2.1.2,3s.1,1.8.2,3c-2,.3-3.9.6-5.7.8s-3.6.5-5.4.8-3.4.5-5.1.7-3.3.5-4.9.7-3.1.5-4.7.7-3,.4-4.5.7l-4.5.6-4.4.6-4.5.6c-1.5.2-3,.4-4.5.7s-3.1.4-4.7.7-3.2.5-4.9.7-3.4.5-5.1.7-3.5.5-5.4.8-3.8.5-5.7.8c-.1-1.3-.1-2.2-.1-3.2s-.1-1.9-.1-3.2c2.3-.5,4.3-1,6.3-1.5s3.7-1,5.3-1.6a47,47,0,0,0,4.5-1.7,24.26,24.26,0,0,0,3.6-2,21.72,21.72,0,0,0,2.9-2.4,20.14,20.14,0,0,0,2.2-2.9,28.37,28.37,0,0,0,1.6-3.5,25.82,25.82,0,0,0,1-4.2c.1-.5.1-1,.2-1.5s.1-1,.2-1.5.1-1.1.2-1.6.1-1.1.2-1.7.1-1.3.2-1.9.1-1.4.2-2.2.1-1.6.2-2.5.1-1.9.2-2.9.1-2.1.2-3.3.1-2.4.2-3.8.1-2.8.2-4.3.2-3.2.2-4.9.2-3.6.3-5.6.2-4.1.3-6.3.2-4.6.3-7,.2-5.1.4-7.8.3-5.7.4-8.7.3-6.3.5-9.6.3-6.9.5-10.6.4-7.6.6-11.6a26.67,26.67,0,0,0,0-4,16.15,16.15,0,0,0-.6-3.3,8.16,8.16,0,0,0-1.4-2.6,8.47,8.47,0,0,0-2.5-2,15,15,0,0,0-3.8-1.5,33.45,33.45,0,0,0-5.3-1,67.54,67.54,0,0,0-7.1-.6c-2.7-.1-5.7-.2-9.1-.2-.1-1.3-.1-2.2-.1-3.1s-.1-1.9-.1-3.1l5.6-.3,5.2-.3,4.8-.3,4.6-.3,4.4-.3c1.5-.1,2.9-.2,4.4-.2l4.4-.3,4.6-.3,4.8-.3,5.2-.3,5.6-.3c1.1,1.6,2.3,3.2,3.4,4.8s2.2,3.1,3.2,4.6,2.1,3,3.1,4.4,2,2.9,3,4.3,2,2.8,2.9,4.1,1.9,2.7,2.9,4,1.9,2.6,2.8,3.9,1.8,2.5,2.7,3.8,1.8,2.5,2.7,3.7,1.8,2.4,2.6,3.6,1.7,2.4,2.6,3.6,1.7,2.4,2.6,3.5,1.7,2.4,2.6,3.5,1.7,2.3,2.6,3.5,1.7,2.3,2.6,3.5,1.7,2.3,2.6,3.5,1.8,2.4,2.6,3.6l2.7,3.6c.9,1.2,1.8,2.4,2.7,3.7s1.9,2.5,2.8,3.7,1.9,2.5,2.9,3.8l3,3.9c1,1.3,2,2.7,3.1,4s2.1,2.7,3.2,4.1,2.2,2.8,3.3,4.3,2.2,2.9,3.4,4.4c1-1.8,2.1-3.5,3.1-5.2s2-3.4,2.9-5,1.9-3.2,2.8-4.8,1.8-3.1,2.7-4.6l2.7-4.5c.9-1.5,1.7-2.9,2.6-4.3s1.7-2.8,2.5-4.2,1.7-2.7,2.5-4.1,1.6-2.7,2.4-4L874,589c.8-1.3,1.6-2.6,2.3-3.9s1.6-2.6,2.3-3.8,1.5-2.5,2.3-3.8,1.5-2.5,2.3-3.8,1.5-2.5,2.3-3.8,1.6-2.5,2.3-3.8,1.6-2.6,2.4-3.8l2.4-3.9c.8-1.3,1.6-2.6,2.4-4s1.7-2.7,2.5-4,1.7-2.7,2.6-4.1,1.7-2.8,2.6-4.2,1.8-2.9,2.7-4.3,1.9-3,2.8-4.5,1.9-3,2.9-4.6,2-3.1,3-4.8l5.6-.3,5.2-.3,4.9-.3,4.6-.3,4.5-.3,4.4-.3,4.5-.3,4.6-.3,4.9-.3,5.2-.3,5.6-.3c.1,1.1.1,1.9.2,2.7s.1,1.6.2,2.7c-2.9.4-5.6.8-8,1.2s-4.5.8-6.4,1.2a39.83,39.83,0,0,0-5,1.3,21.83,21.83,0,0,0-3.7,1.5,8.55,8.55,0,0,0-2.6,1.8,8.68,8.68,0,0,0-1.7,2.2,10.71,10.71,0,0,0-.9,2.7,17.77,17.77,0,0,0-.2,3.4,30.46,30.46,0,0,0,.3,4.1c.2,2,.3,3.9.5,5.8s.3,3.7.5,5.4.3,3.5.4,5.1.3,3.3.4,4.9.3,3.2.4,4.7.3,3.1.4,4.6.3,3,.4,4.5.3,3,.4,4.5.3,3,.4,4.5.3,3,.4,4.6.3,3.1.4,4.7.3,3.2.4,4.9.3,3.4.4,5.1.3,3.6.5,5.4.3,3.8.5,5.8.5,3.9.8,5.6a39.66,39.66,0,0,0,.9,4.5,24.18,24.18,0,0,0,1.1,3.5,11.74,11.74,0,0,0,1.5,2.7,7.56,7.56,0,0,0,2.1,1.9,10.28,10.28,0,0,0,2.8,1.2,19.07,19.07,0,0,0,3.7.6c1.4.1,3,.1,4.8.1s3.8-.1,6.1-.3,4.7-.3,7.5-.6c.1,1.1.1,1.9.2,2.7s.1,1.6.2,2.7c-1.9.3-3.8.6-5.7.8s-3.6.5-5.4.8-3.4.5-5.1.8-3.3.5-4.9.7-3.2.5-4.7.7-3.1.5-4.6.7-3,.4-4.5.7l-4.4.6-4.4.6-4.4.6c-1.5.2-3,.4-4.5.7s-3,.4-4.6.7-3.1.5-4.7.7-3.2.5-4.9.7-3.4.5-5.1.8-3.5.5-5.4.8C899.6,656.1,897.7,656.4,895.8,656.7Z" transform="translate(0 -166)"/><path class="cls-4" d="M1104.6,610.8c-1.6,1.4-3.1,2.7-4.7,4l-4.8,3.6c-1.6,1.1-3.2,2.2-4.8,3.2s-3.2,1.9-4.8,2.8a52.14,52.14,0,0,1-4.7,2.4,46.87,46.87,0,0,1-4.6,2.1c-1.5.6-3,1.2-4.4,1.8l-4.2,1.5c-1.3.4-2.6.9-3.9,1.2a25.8,25.8,0,0,1-3.5.9c-1.1.3-2.2.5-3.2.7s-1.9.4-2.7.5c-2.2.3-4.4.6-6.6.8s-4.2.3-6.3.4-4,.1-6,0-3.8-.2-5.7-.4a42.09,42.09,0,0,1-5.3-.8c-1.7-.3-3.4-.7-5-1.1s-3.2-.9-4.6-1.4a32.51,32.51,0,0,1-4.3-1.8,24.19,24.19,0,0,1-3.9-2.1c-1.2-.7-2.4-1.5-3.5-2.3a26.63,26.63,0,0,1-3.1-2.6,37.06,37.06,0,0,1-2.7-2.9,35.53,35.53,0,0,1-2.3-3.1c-.7-1.1-1.3-2.2-1.9-3.3a21.3,21.3,0,0,1-1.4-3.5c-.4-1.2-.7-2.4-1-3.6a23.2,23.2,0,0,1-.5-3.8,30.84,30.84,0,0,1,0-4.3,28.37,28.37,0,0,1,.5-4.2c.3-1.4.6-2.8,1-4.2a33.86,33.86,0,0,1,1.5-4.1c.6-1.3,1.3-2.7,2-4s1.6-2.6,2.5-3.8,1.9-2.5,3-3.7,2.2-2.4,3.4-3.5,2.5-2.2,3.8-3.3,2.5-2,3.8-2.9,2.7-1.8,4.1-2.7a36.23,36.23,0,0,1,4.3-2.4c1.4-.8,2.9-1.5,4.4-2.2s3-1.3,4.6-1.9,3.1-1.2,4.7-1.7,3.2-1,4.8-1.4,3.2-.8,4.8-1.1l4.8-.9c1.6-.3,3.2-.4,4.8-.6,2.2-.2,4.5-.3,6.6-.3s4.3.1,6.3.2,4.1.4,6,.7a50.54,50.54,0,0,1,5.6,1.2c1.8.5,3.5,1,5.2,1.6s3.2,1.2,4.7,1.9a41.61,41.61,0,0,1,4.2,2.3,33.2,33.2,0,0,1,3.6,2.6,26.82,26.82,0,0,1,3,2.8,30,30,0,0,1,2.3,3,18.67,18.67,0,0,1,1.5,3.2,10.32,10.32,0,0,1,.7,3.4,6,6,0,0,1-1,4.1c-.8,1.1-2.3,1.8-4.7,2.4-.4.1-.8.2-1.4.3s-1.3.2-2.1.4-1.7.3-2.7.5-2.1.4-3.2.6-2.4.4-3.8.6-2.7.4-4.2.7-3,.5-4.7.7-3.3.5-5,.8-3.5.5-5.4.8-3.7.6-5.7.9-3.9.6-5.9.9l-6.1.9-6.3.9-6.4.9-6.5.9-6.5.9c-2.1.3-6.1.4-6.5.9s.3,3.7.7,5.4a33.68,33.68,0,0,0,1.5,4.8,27.8,27.8,0,0,0,2.2,4.2,25.38,25.38,0,0,0,2.9,3.6,35.15,35.15,0,0,0,3.5,3.1,32.21,32.21,0,0,0,3.9,2.5,29.44,29.44,0,0,0,4.4,2,36.76,36.76,0,0,0,4.7,1.5c1.6.4,3.3.8,5,1.1a44.29,44.29,0,0,0,5.1.6c1.7.1,3.5.2,5.2.2s3.5-.1,5.2-.2a46,46,0,0,0,5.2-.6c1.6-.2,3.2-.5,4.7-.8s3.1-.7,4.6-1.1,3-.9,4.5-1.4,3-1,4.4-1.6,2.9-1.2,4.4-1.9,2.9-1.4,4.3-2.2l4.2-2.4a36.22,36.22,0,0,0,4.1-2.7l2.7,1.7A8,8,0,0,0,1104.6,610.8ZM1046.3,559a35.45,35.45,0,0,0-4.7.7,39.61,39.61,0,0,0-4.6,1.3,23.46,23.46,0,0,0-4.3,1.9,26.48,26.48,0,0,0-4,2.4c-1.3.9-2.5,1.9-3.7,2.9a21.48,21.48,0,0,0-3.2,3.5,28,28,0,0,0-2.7,4,31,31,0,0,0-2.1,4.5,27.46,27.46,0,0,0-1.4,4.9c1.6-.2,3.2-.3,4.7-.5s3.2-.4,4.7-.5,3.2-.4,4.8-.5,3.2-.4,4.8-.5l4.8-.6,4.8-.6,4.8-.6,4.9-.6,4.9-.6c1.6-.2,3.3-.4,4.9-.7s3.3-.5,5-.7a15.7,15.7,0,0,0,5.8-1.4,2.83,2.83,0,0,0,1.4-2.9,12.85,12.85,0,0,0-.7-3.4,13.45,13.45,0,0,0-1.7-3.1,17,17,0,0,0-2.6-2.8,20.76,20.76,0,0,0-3.4-2.4,40.83,40.83,0,0,0-4.2-1.9,51.6,51.6,0,0,0-5-1.3,48,48,0,0,0-5.6-.6A34.22,34.22,0,0,0,1046.3,559Z" transform="translate(0 -166)"/><path class="cls-4" d="M1128.3,622.1c-.2-1.9-.3-2.9-.4-4.8,2.8-.6,5.2-1.1,7.3-1.5s3.9-.9,5.4-1.4a30.12,30.12,0,0,0,3.8-1.5,7.77,7.77,0,0,0,2.4-1.9,6.61,6.61,0,0,0,1.3-2.5,11.06,11.06,0,0,0,.4-3.3c0-1.2-.1-2.7-.2-4.3-.2-2-.4-3.8-.5-5.5s-.3-3.4-.5-4.9-.3-3.1-.4-4.6-.3-3-.4-4.4-.3-3-.4-4.6-.3-3.2-.5-4.9-.3-3.6-.5-5.5a39.22,39.22,0,0,0-.6-4.4,10.46,10.46,0,0,0-1.1-3,5.54,5.54,0,0,0-2.1-1.9,10.38,10.38,0,0,0-3.5-1c-1.5-.2-3.3-.3-5.5-.4s-4.9-.1-8,0c-.1-1.6-.2-2.4-.4-4.1,1.8-.3,3.5-.7,5.3-1s3.5-.7,5.1-1.1,3.4-.7,5-1.1l4.9-1.2,4.8-1.2c1.6-.4,3.2-.8,4.7-1.2s3.1-.8,4.6-1.3,3-.9,4.5-1.3,2.9-.9,4.4-1.4c.1,1.4.3,2.8.4,4.1s.3,2.8.4,4.1.3,2.8.4,4.1.3,2.8.4,4.1.3,2.8.4,4.1c.2,1.8.3,3.5.5,5.1s.3,3.1.4,4.6.3,2.9.4,4.3.3,2.7.4,4.1.3,2.7.4,4.1.3,2.8.4,4.3.3,3,.4,4.6.3,3.3.5,5.1a38.42,38.42,0,0,0,.6,4.2,15,15,0,0,0,1,3,4.94,4.94,0,0,0,1.8,2,7.14,7.14,0,0,0,2.8,1.1,37.93,37.93,0,0,0,4.1.4c1.6,0,3.5-.1,5.7-.2s4.7-.4,7.6-.7c.2,1.8.3,2.7.4,4.5q-3,.45-5.7.9c-1.8.3-3.6.5-5.3.8s-3.4.5-5,.8-3.2.5-4.8.7-3.1.5-4.6.7-3,.5-4.5.7-3,.4-4.4.7-2.9.4-4.4.7-3,.5-4.5.7-3,.5-4.6.7-3.2.5-4.8.7-3.3.5-5,.8-3.5.5-5.3.8A37.36,37.36,0,0,0,1128.3,622.1Zm23.6-96.3a29,29,0,0,1-5.1-.1,22.06,22.06,0,0,1-4.6-1,14.64,14.64,0,0,1-3.8-1.7,8.42,8.42,0,0,1-2.6-2.3,5.75,5.75,0,0,1-1.1-2.7,5.58,5.58,0,0,1,.6-3.1,8,8,0,0,1,2.2-2.7,15,15,0,0,1,3.5-2.2,18.28,18.28,0,0,1,4.5-1.5,27.18,27.18,0,0,1,5.1-.8,27.66,27.66,0,0,1,5,.1,18.94,18.94,0,0,1,4.4,1,12,12,0,0,1,3.6,1.7,11.21,11.21,0,0,1,2.5,2.3,6.06,6.06,0,0,1,1.1,2.9,5.47,5.47,0,0,1-.9,3.4,10.34,10.34,0,0,1-3.2,3,20.23,20.23,0,0,1-4.9,2.3A20.75,20.75,0,0,1,1151.9,525.8Z" transform="translate(0 -166)"/><path class="cls-4" d="M1362.3,582.7c-.6.2-1.5.3-2.4.6s-2.1.5-3.3.8-2.6.6-4,1-3,.7-4.6,1.1-3.3.8-5.1,1.3-3.6.9-5.4,1.4-3.7,1-5.7,1.5-3.8,1.1-5.7,1.6-3.8,1.1-5.7,1.7-3.7,1.2-5.5,1.7c-.2-1.5-.4-3.1-.5-4.7s-.4-3.2-.5-4.7c-1.1.5-2.3,1-3.5,1.5s-2.5,1.1-3.8,1.7-2.6,1.1-4,1.7-2.6,1.1-3.8,1.7-2.4,1.1-3.5,1.6q-3,1.35-5.7,2.4c-1.8.7-3.5,1.4-5.1,1.9s-3,1.1-4.4,1.5-2.6.8-3.7,1.1a21.14,21.14,0,0,1-3,.7c-.9.1-1.6.3-2.2.4a44.29,44.29,0,0,1-5.1.6,45.78,45.78,0,0,1-5.3.3,97.39,97.39,0,0,1-10.8-.3l-5.3-.6a47.63,47.63,0,0,1-5.2-1c-1.7-.4-3.4-.8-5-1.3s-3.2-1.1-4.8-1.7-3-1.3-4.4-2a26.48,26.48,0,0,1-4-2.4,33,33,0,0,1-3.5-2.8,22.74,22.74,0,0,1-3-3.2,23.35,23.35,0,0,1-2.3-3.5,16.82,16.82,0,0,1-1.6-3.9,29.79,29.79,0,0,1-.9-4.3c-.1-1.1-.1-2.2-.1-3.3a18.81,18.81,0,0,1,.5-3.3,29.92,29.92,0,0,1,1-3.2,23,23,0,0,1,1.5-3.2c.6-1,1.3-2.1,2-3.1a33.09,33.09,0,0,1,2.5-3,39.67,39.67,0,0,1,2.9-2.9,30.39,30.39,0,0,1,3.3-2.8c1.2-.9,2.4-1.8,3.7-2.7s2.6-1.7,4-2.5,2.9-1.6,4.4-2.4,3.1-1.5,4.7-2.2,3.3-1.4,5-2.1,3.5-1.3,5.2-1.9,3.6-1.2,5.5-1.7,3.8-1.1,5.7-1.5,3.9-.9,5.9-1.3,4-.8,6.1-1.1,4.1-.7,6.2-.9,4.2-.5,6.3-.7c.9-.1,2-.2,3.2-.3s2.7-.2,4.2-.2,3.1-.1,4.7-.2,3.2,0,4.8,0a29,29,0,0,1,4.3.3c-.2-1.7-.4-3.2-.5-4.7s-.3-2.8-.5-4.1-.3-2.6-.4-3.9-.3-2.6-.5-4.1-.3-3-.5-4.7a23.53,23.53,0,0,0-.6-3.4,11.82,11.82,0,0,0-1-2.5,4.64,4.64,0,0,0-1.8-1.6,15,15,0,0,0-3-1,26.49,26.49,0,0,0-4.4-.4c-1.7-.1-3.8-.1-6.2-.1s-5.1.1-8.3.2c-.2-1.5-.3-2.3-.4-3.9q2.25-.3,4.8-.6c1.6-.2,3.3-.5,5-.7s3.5-.5,5.2-.8,3.5-.5,5.3-.8,3.5-.6,5.3-.8,3.5-.6,5.1-.8,3.3-.6,4.9-.8,3.1-.6,4.6-.8,2.9-.5,4.2-.8,2.5-.5,3.7-.8c.2,1.3.3,2.7.5,4.1s.3,2.9.5,4.3.3,3,.5,4.4.3,3,.5,4.4c.2,2,.5,3.8.7,5.7s.4,3.6.6,5.3.4,3.4.6,5l.6,4.8c.2,1.6.4,3.1.5,4.6s.4,3,.5,4.5.3,2.9.5,4.4.3,2.9.5,4.4.3,3,.5,4.5.4,3,.5,4.6.4,3.1.6,4.8.4,3.3.6,5,.4,3.5.6,5.3.4,3.7.7,5.7a15.09,15.09,0,0,0,1,4.4,4.32,4.32,0,0,0,2.3,2.3,10.6,10.6,0,0,0,4.3.6,53.29,53.29,0,0,0,7-.6c1.3-.2,2.4-.3,3.5-.4s2-.2,3-.4,2.1-.3,3.5-.4A13.94,13.94,0,0,0,1362.3,582.7Zm-53.6-41.5a30.06,30.06,0,0,0-3.6-1.7,41.66,41.66,0,0,0-4.2-1.3,35.5,35.5,0,0,0-4.7-.9l-5-.6a45.2,45.2,0,0,0-5.2-.2c-1.8,0-3.5,0-5.3.1s-3.5.2-5.2.4c-1.2.1-2.6.3-3.9.5s-2.8.5-4.2.8-2.9.7-4.4,1.1-3,.9-4.5,1.4a33.83,33.83,0,0,0-4.4,1.8c-1.4.7-2.8,1.4-4.2,2.2a33.71,33.71,0,0,0-7.1,5.8,24.16,24.16,0,0,0-2.7,3.6,20,20,0,0,0-1.9,4.2,24.55,24.55,0,0,0-1,4.7,23.46,23.46,0,0,0,0,5.3,32.58,32.58,0,0,0,.9,4.5,18.1,18.1,0,0,0,1.8,4,28,28,0,0,0,2.5,3.5,18.33,18.33,0,0,0,3.2,3,30,30,0,0,0,3.7,2.5,40.93,40.93,0,0,0,4.2,2c1.5.6,3,1.1,4.6,1.6a38.77,38.77,0,0,0,4.9,1.1c1.7.3,3.3.5,5,.7a43.61,43.61,0,0,0,5.1.3c1.7,0,3.4,0,5.1-.1s3.4-.3,5-.5a40.48,40.48,0,0,0,4.8-.9c1.6-.4,3.2-.7,4.8-1.1s3.2-.9,4.7-1.4l4.5-1.5c1.5-.5,2.9-1.1,4.2-1.6s2.6-1.1,3.8-1.6,2.3-1.1,3.3-1.6q-.3-2.7-.6-5.1c-.2-1.6-.4-3.1-.5-4.6s-.3-2.9-.5-4.3-.3-2.7-.5-4.1-.3-2.7-.5-4-.3-2.7-.5-4.1-.3-2.8-.5-4.3-.3-3-.5-4.6S1308.9,543,1308.7,541.2Z" transform="translate(0 -166)"/><path class="cls-4" d="M1475.7,570c-1.5.2-3.4.4-5.2.5a48.63,48.63,0,0,1-5.4,0,22.2,22.2,0,0,1-4.3-.6,16.86,16.86,0,0,1-5-1.9,12.08,12.08,0,0,1-3.2-2.7c-1.5.7-3,1.3-4.6,2.1s-3.1,1.4-4.7,2.1l-4.8,2.1-4.8,2.1c-1.6.7-3.1,1.3-4.7,1.9s-3,1.1-4.5,1.6-2.9.9-4.2,1.3a28.72,28.72,0,0,1-3.8.8,59.35,59.35,0,0,1-7.1.8,50.49,50.49,0,0,1-6.7.2,59.33,59.33,0,0,1-6.1-.3,45.1,45.1,0,0,1-5.5-.9,28.92,28.92,0,0,1-4.7-1.4,23.22,23.22,0,0,1-3.9-1.8,14.56,14.56,0,0,1-3-2.2,11.56,11.56,0,0,1-2-2.5,7.09,7.09,0,0,1-.9-2.8,6.54,6.54,0,0,1,.2-2.8,10.66,10.66,0,0,1,1.2-2.7,13.38,13.38,0,0,1,2.3-2.5,25,25,0,0,1,3.4-2.4,46.67,46.67,0,0,1,4.5-2.3c1.7-.7,3.5-1.5,5.5-2.2s4.2-1.4,6.6-2.1c1.7-.5,3.4-1,5.1-1.4s3.5-1,5.3-1.5l5.3-1.5c1.8-.5,3.5-1,5.2-1.5l5.1-1.5c1.7-.5,3.3-1,4.8-1.4s3-.9,4.5-1.3,2.8-.9,4-1.3,2.4-.8,3.5-1.2,2-.7,2.9-1.1,1.6-.6,2.2-.9c-.1-1-.2-1.5-.3-2.5a12,12,0,0,0-1.1-3.5,12.78,12.78,0,0,0-2.3-2.9,16.88,16.88,0,0,0-3.4-2.3,25.2,25.2,0,0,0-4.4-1.7,39.94,39.94,0,0,0-5.2-1,57.36,57.36,0,0,0-6-.3,50.74,50.74,0,0,0-6.6.4c-1.8.2-3.4.4-4.8.7a36.35,36.35,0,0,0-3.9,1.1,18.08,18.08,0,0,0-3.1,1.3,25.5,25.5,0,0,0-2.4,1.4,13.52,13.52,0,0,0-2.8,2.5,20.22,20.22,0,0,0-2.3,3.2c-.7,1.2-1.4,2.5-2.2,3.8a6.14,6.14,0,0,1-3,2.7,17.51,17.51,0,0,1-5.6,1.4,24.44,24.44,0,0,1-4.7.1,22.08,22.08,0,0,1-4.6-.8,12.69,12.69,0,0,1-3.5-1.5,3.35,3.35,0,0,1-1.6-2.2,2.56,2.56,0,0,1,1-2,17,17,0,0,1,3.3-2.2,43.31,43.31,0,0,1,5.2-2.4c.9-.4,1.8-.8,2.8-1.2s2.1-.9,3.3-1.4,2.4-1,3.7-1.5,2.7-1,4.1-1.5,2.9-1,4.4-1.5,3.1-1,4.7-1.5,3.2-1,4.9-1.5,3.3-.9,5.1-1.4,3.4-.8,5.2-1.2,3.5-.7,5.2-1.1c1.5-.1,3.1-.3,4.7-.4s3.1-.1,4.7-.2h4.6c1.5,0,3,.1,4.4.2s2.9.3,4.2.4a39.1,39.1,0,0,1,3.9.7,57.85,57.85,0,0,1,6.1,1.7,26.65,26.65,0,0,1,4.8,2.1,15.66,15.66,0,0,1,3.5,2.5,10.93,10.93,0,0,1,2.3,3,10.24,10.24,0,0,1,1.1,3.5c.3,1.9.5,3.6.7,5.2s.4,3.1.6,4.5.4,2.9.6,4.3.4,2.9.6,4.5.5,3.3.7,5.2a6.15,6.15,0,0,0,2.2,4.2,7.56,7.56,0,0,0,4.3,1.7,24.59,24.59,0,0,0,5.4-.1,28.72,28.72,0,0,0,3.8-.8c1.3-.3,2.5-.7,3.7-1s2.4-.8,3.5-1.2c1.4,1.2,2.1,1.7,3.6,2.9-1.7.7-3.3,1.3-4.7,1.9s-2.8,1.1-4.2,1.7l-3.9,1.5c-1.3.5-2.5,1-3.9,1.6s-2.7,1.1-4.2,1.7S1477.4,569.3,1475.7,570Zm-26.8-28.4c-1.1.4-2.4.8-3.9,1.3s-3.1,1-4.8,1.6-3.5,1.1-5.2,1.7-3.6,1.1-5.3,1.7-3.4,1.1-4.9,1.6-2.9.9-4,1.3c-2.3.7-4.4,1.5-6.3,2.2a40.79,40.79,0,0,0-5.1,2.3,18.21,18.21,0,0,0-3.7,2.4,7.76,7.76,0,0,0-2.1,2.5,5.39,5.39,0,0,0-.5,2.8,5.21,5.21,0,0,0,1.4,3.1,8.25,8.25,0,0,0,2.9,2.2,16.48,16.48,0,0,0,4.1,1.4,36.11,36.11,0,0,0,4.9.7,45.1,45.1,0,0,0,5.2,0c1.7-.1,3.5-.3,5.1-.5,1.3-.2,2.8-.5,4.2-.8s3-.7,4.5-1.1,3-.9,4.5-1.4,2.9-1,4.3-1.6,2.7-1.1,3.9-1.7,3.1-1.3,3.3-1.7c.3-.6-.4-3.1-.6-4.8s-.5-3.4-.7-5.1-.5-3.5-.7-5.1S1449.1,543.1,1448.9,541.6Z" transform="translate(0 -166)"/><path class="cls-4" d="M1514.6,562.4c-.2-1.3-.3-2-.5-3.3,3.2-.6,6-1.2,8.3-1.7a59.2,59.2,0,0,0,5.8-1.5,20,20,0,0,0,3.7-1.5,5,5,0,0,0,2.7-4.4,13.7,13.7,0,0,0-.2-3.4c-.3-1.9-.5-3.6-.8-5.2s-.5-3.1-.7-4.5-.4-2.9-.6-4.3-.4-2.9-.7-4.5-.5-3.3-.8-5.2a14,14,0,0,0-.8-3.5,5,5,0,0,0-1.6-2.2,8,8,0,0,0-3.3-1.1,34.33,34.33,0,0,0-5.9-.2c-2.5.1-5.5.1-9.3.3-.2-1.1-.2-1.7-.4-2.8l5.3-.9,5.1-.9c1.7-.3,3.4-.6,5-1s3.3-.6,4.9-1,3.2-.7,4.8-1,3.1-.7,4.7-1,3.1-.7,4.6-1,3-.7,4.5-1.1,2.9-.7,4.4-1.1c.2,1.6.5,3.1.7,4.7s.5,3.1.7,4.7.5,3.1.7,4.7c.3,2,.6,3.8.8,5.4s.5,3.2.7,4.7.4,3,.7,4.5.5,3,.7,4.7.5,3.4.8,5.4a19.42,19.42,0,0,0,.7,3.2,4.58,4.58,0,0,0,1.4,2.1,5.27,5.27,0,0,0,2.5,1.1,22.94,22.94,0,0,0,4.1.3c1.7,0,3.7-.2,6.2-.4s5.3-.6,8.7-1c.2,1.2.3,1.8.5,3.1-2,.3-3.8.6-5.7.9s-3.6.6-5.3.8-3.4.5-5,.8-3.2.5-4.8.8-3.1.5-4.6.7-3,.5-4.5.7-2.9.5-4.4.7-2.9.5-4.4.7-3,.5-4.5.7-3,.5-4.6.7-3.1.5-4.8.8-3.3.5-5,.8-3.5.6-5.3.8C1518.4,561.8,1516.5,562.1,1514.6,562.4Zm22.9-68a33.13,33.13,0,0,1-6.3,0,37.94,37.94,0,0,1-5.4-.9,11.75,11.75,0,0,1-3.9-1.7,2.92,2.92,0,0,1-.7-4.9,11.81,11.81,0,0,1,3.4-2.3,30.46,30.46,0,0,1,5.1-1.7,39.8,39.8,0,0,1,6.3-.9,42.71,42.71,0,0,1,6.2,0,35,35,0,0,1,5.2.9,10.6,10.6,0,0,1,3.7,1.7,3.7,3.7,0,0,1,1.6,2.4,2.74,2.74,0,0,1-.9,2.3,11.23,11.23,0,0,1-3.1,2.2,18.68,18.68,0,0,1-4.9,1.7A26,26,0,0,1,1537.5,494.4Z" transform="translate(0 -166)"/><path class="cls-4" d="M1672.3,505.4c-.8-.6-1.7-1.2-2.6-1.8a13.23,13.23,0,0,0-2.9-1.5,25.21,25.21,0,0,0-3.3-1.3c-1.2-.4-2.4-.7-3.7-1s-2.8-.5-4.3-.7a38.4,38.4,0,0,0-5-.3c-1.8,0-3.7,0-5.8.1s-4.3.3-6.6.5a52.44,52.44,0,0,0-6.1.9,46,46,0,0,0-5.1,1.4,23.77,23.77,0,0,0-3.9,1.8,7.41,7.41,0,0,0-2.4,2.2,3.61,3.61,0,0,0-.6,2.4,3.65,3.65,0,0,0,1.1,2,8.25,8.25,0,0,0,2.5,1.5,18.42,18.42,0,0,0,3.9,1c1.5.3,3.3.5,5.3.7s4.3.3,6.8.5l8.2.3,8.6.3,7.6.3c2.4.1,4.6.3,6.6.4s3.9.3,5.6.6,3.3.5,4.7.7a28,28,0,0,1,3.7,1,17.79,17.79,0,0,1,2.7,1.2,9.51,9.51,0,0,1,1.8,1.5,3.26,3.26,0,0,1,.8,1.9,4.24,4.24,0,0,1-.2,2.2,6.34,6.34,0,0,1-1.2,2.1,20.79,20.79,0,0,1-2.1,2.1,24.26,24.26,0,0,1-2.9,2.1,41.27,41.27,0,0,1-3.7,2,42.76,42.76,0,0,1-4.3,1.9q-2.25.9-4.8,1.8c-1.7.6-3.5,1.2-5.3,1.7s-3.7,1.1-5.6,1.6-3.9,1-5.9,1.5-4,.9-6,1.3-4.1.8-6.1,1.1-4,.6-5.9.9-3.9.5-5.7.7-3.7.4-5.4.6-3.4.3-5.1.4l-4.6.3c-1.5.1-2.8.1-4.1.2h-3.5c-1.1,0-2.5.2-2.9-.1-.6-.3-1.5-2.2-2.5-3.5s-1.9-2.8-2.8-4.2-1.7-2.8-2.3-3.9c1.8-.4,3.1-.6,4.4-.9s2.7-.5,4.4-.9a15.45,15.45,0,0,0,2.4,1.9,26.06,26.06,0,0,0,2.8,1.7q1.5.75,3.3,1.5a34,34,0,0,0,3.8,1.2c1.3.3,2.8.6,4.3.8s3.2.4,4.9.5a50.42,50.42,0,0,0,5.5,0c1.9-.1,4-.2,6.2-.4s4.4-.5,6.9-.9a66,66,0,0,0,6.7-1.4,39.71,39.71,0,0,0,5.8-1.8,48.48,48.48,0,0,0,4.5-2.1,9.58,9.58,0,0,0,2.8-2.3,2.85,2.85,0,0,0,.7-2.4,3.52,3.52,0,0,0-1-1.9,6.92,6.92,0,0,0-2.4-1.4,21.44,21.44,0,0,0-3.7-1c-1.5-.3-3.1-.5-5-.7s-4-.3-6.4-.4l-7.7-.3c-2.5-.1-4.9-.1-7.2-.2l-6.8-.3c-2.2-.1-4.3-.3-6.3-.4s-3.9-.4-5.7-.6a34.41,34.41,0,0,1-5-.9,33.71,33.71,0,0,1-4.1-1.2,19.1,19.1,0,0,1-3.2-1.5,10.4,10.4,0,0,1-2.2-1.9,4.3,4.3,0,0,1-1-2.3,5,5,0,0,1,.1-2.1,7.09,7.09,0,0,1,1.1-2.1,12.91,12.91,0,0,1,2-2.1,15.45,15.45,0,0,1,2.8-2,30.4,30.4,0,0,1,3.6-1.9c1.3-.6,2.8-1.2,4.4-1.8s3.3-1.1,5.1-1.7,3.8-1,5.8-1.5,4.2-.9,6.5-1.3,4.6-.8,7.1-1.1,5-.6,7.7-.9c1.9-.2,3.7-.3,5.4-.5s3.5-.3,5.1-.4l4.7-.3c1.5-.1,3-.1,4.4-.2s2.7-.1,3.9-.2,2.4-.1,3.4-.1,2.6-.3,2.9-.1,1.1,1.9,1.8,3.1,1.6,2.7,2.4,3.9a37.76,37.76,0,0,0,2.2,3.1c-1.8.3-3.1.6-4.4.9A14.34,14.34,0,0,0,1672.3,505.4Z" transform="translate(0 -166)"/><path class="cls-4" d="M1813,515.1c-1.5.3-3.3.5-5.2.7a51.69,51.69,0,0,1-5.4.3c-1.7,0-3.2,0-4.3-.1a25.16,25.16,0,0,1-5-.9,13.54,13.54,0,0,1-3.2-1.5c-1.5.5-3,1.1-4.6,1.6s-3.1,1.1-4.7,1.7-3.2,1.1-4.8,1.7-3.2,1.1-4.8,1.6-3.1,1-4.7,1.5-3,.9-4.5,1.3-2.8.8-4.2,1.1-2.6.6-3.8.8c-2.4.4-4.8.7-7.1,1s-4.5.4-6.6.5-4.1.1-6.1.1a46.26,46.26,0,0,1-5.4-.3c-1.7-.2-3.3-.4-4.7-.7a36.86,36.86,0,0,1-3.9-1,20.81,20.81,0,0,1-3-1.3,8.27,8.27,0,0,1-2-1.6,3.82,3.82,0,0,1-.9-1.8,4.22,4.22,0,0,1,.3-2.2,6.7,6.7,0,0,1,1.8-2.2,16.12,16.12,0,0,1,3.2-2.1,43.15,43.15,0,0,1,4.7-2.1,54.67,54.67,0,0,1,6.1-2c2.3-.7,4.8-1.3,7.6-2,1.9-.4,3.7-.9,5.7-1.3s3.9-.9,5.8-1.4,3.9-.9,5.8-1.4,3.8-.9,5.7-1.3,3.7-.9,5.5-1.3,3.5-.8,5.1-1.2,3.2-.8,4.6-1.2,2.8-.7,4-1.1,2.3-.6,3.3-.9a16.68,16.68,0,0,0,2.4-.8c-.1-.7-.2-1-.3-1.6a4.59,4.59,0,0,0-1.1-2.2,8.36,8.36,0,0,0-2.3-1.8,15.05,15.05,0,0,0-3.4-1.3,26.26,26.26,0,0,0-4.4-.9,42.23,42.23,0,0,0-5.2-.4c-1.8,0-3.9-.1-6,0s-4.3.3-6.6.5-4.4.6-6.2,1-3.3.8-4.6,1.2a21.79,21.79,0,0,0-3.4,1.4,16.8,16.8,0,0,0-4,2.8,31.05,31.05,0,0,0-3.3,3.8,6.23,6.23,0,0,1-3,1.9,26.66,26.66,0,0,1-5.6,1.2,35.93,35.93,0,0,1-4.7.3,33.33,33.33,0,0,1-4.6-.3,13.63,13.63,0,0,1-3.5-.9c-.9-.4-1.5-.8-1.6-1.4-.1-.4.3-.9,1.1-1.4a25.76,25.76,0,0,1,3.3-1.6,51.16,51.16,0,0,1,5.2-1.8c1-.3,2-.7,3.2-1s2.4-.8,3.8-1.2,2.8-.8,4.3-1.3,3.1-.9,4.7-1.3,3.3-.9,5.1-1.3,3.5-.9,5.4-1.3,3.7-.8,5.6-1.2,3.8-.8,5.7-1.1,3.9-.7,5.8-1c1.5-.2,3.1-.3,4.7-.4l4.7-.3c1.5-.1,3.1-.1,4.6-.2s3,0,4.4,0,2.8.1,4.2.1l3.9.3a46.69,46.69,0,0,1,6.1.9c1.8.4,3.4.7,4.8,1.1a19.58,19.58,0,0,1,3.5,1.4,6.66,6.66,0,0,1,2.2,1.8,6.5,6.5,0,0,1,1.1,2.2c.3,1.5.6,2.8.8,4.1s.5,2.4.7,3.5.5,2.3.7,3.5.5,2.5.8,4.1a3.66,3.66,0,0,0,2.1,2.6,10.64,10.64,0,0,0,4.3.8,34.39,34.39,0,0,0,5.4-.4c1.2-.2,2.5-.4,3.7-.7s2.5-.6,3.7-.9a35.74,35.74,0,0,0,3.5-1c1.4.6,2.1,1,3.5,1.6-1.7.5-3.3,1-4.7,1.5s-2.8.9-4.1,1.3l-3.9,1.2c-1.3.4-2.5.8-3.9,1.2s-2.7.9-4.1,1.3S1814.7,514.6,1813,515.1Zm-26.5-16.8c-1.1.3-2.4.6-3.9,1s-3.1.8-4.8,1.3-3.5.9-5.2,1.4-3.6.9-5.3,1.4-3.4.9-4.9,1.3-2.9.8-4,1.1q-3.45.9-6.3,1.8c-1.9.6-3.6,1.2-5.1,1.7s-2.7,1.2-3.7,1.7a6.86,6.86,0,0,0-2.2,1.8,2.24,2.24,0,0,0-.5,1.9,3.63,3.63,0,0,0,1.8,2.3,12.52,12.52,0,0,0,4,1.3,29.2,29.2,0,0,0,5.4.5,41.92,41.92,0,0,0,6.1-.2c2.1-.2,4.2-.4,6.2-.7,1.3-.2,2.8-.5,4.2-.8s3-.6,4.5-1l4.5-1.2c1.5-.4,2.9-.9,4.3-1.3s2.7-.9,3.9-1.3a14.75,14.75,0,0,0,3.3-1.3c.2-.4-.5-2.7-.8-4.1s-.6-3-.9-4.4S1786.8,499.6,1786.5,498.3Z" transform="translate(0 -166)"/><path class="cls-4" d="M1851.7,507.8a14.16,14.16,0,0,1-.4-2c3.9-.7,7-1.3,9.6-1.9a57,57,0,0,0,6.2-1.5,10,10,0,0,0,3.4-1.5,3.61,3.61,0,0,0,1.3-1.8,5,5,0,0,0-.1-2.4c-.4-1.9-.8-3.5-1.1-5s-.6-2.9-.9-4.4-.7-3.1-1.1-5a7.32,7.32,0,0,0-.7-2.1,2.26,2.26,0,0,0-1.6-1.2,12.06,12.06,0,0,0-3.3-.5c-1.5-.1-3.4,0-5.8.1s-5.5.3-9.2.6a10.46,10.46,0,0,0-.4-1.7c1.8-.3,3.5-.5,5.3-.8s3.4-.5,5.1-.8,3.4-.5,5-.8,3.3-.5,4.9-.8,3.2-.6,4.8-.8,3.2-.6,4.7-.8,3.1-.6,4.6-.8l4.5-.9,4.4-.9.9,4.2.9,4.2c.3,1.5.6,2.8.9,4s.5,2.3.8,3.4.5,2.2.8,3.4.5,2.5.9,4a6.9,6.9,0,0,0,.7,1.9,2.81,2.81,0,0,0,1.4,1.2,5.51,5.51,0,0,0,2.5.5,29.92,29.92,0,0,0,4.1-.1c1.7-.1,3.7-.4,6.1-.7s5.3-.7,8.6-1.2c.2.7.2,1.1.4,1.8-1.9.3-3.8.6-5.6.9s-3.6.6-5.3.9-3.4.6-5,.8-3.2.5-4.7.8-3.1.5-4.6.8-3,.5-4.4.7-2.9.5-4.4.7-2.9.5-4.4.7-2.9.5-4.4.7-3,.5-4.6.8-3.1.5-4.7.8-3.3.5-5,.8-3.5.6-5.3.9C1855.5,507.2,1853.6,507.5,1851.7,507.8Zm23.8-43.2q-3.3.3-6.3.3a43.86,43.86,0,0,1-5.4-.3,16.09,16.09,0,0,1-3.9-.9c-1-.4-1.5-.8-1.7-1.3s.3-1.1,1-1.7a9,9,0,0,1,3.4-1.5,30.83,30.83,0,0,1,5.2-1.2c2-.3,4.1-.6,6.4-.8s4.3-.2,6.2-.2a39.33,39.33,0,0,1,5.2.4,14.28,14.28,0,0,1,3.7.9c.9.4,1.5.8,1.6,1.4s-.2,1-1,1.4a10.82,10.82,0,0,1-3.2,1.4,29.29,29.29,0,0,1-4.9,1.2C1880,464,1877.8,464.4,1875.5,464.6Z" transform="translate(0 -166)"/></g></svg>